<svg width="50" height="50" viewBox="0 0 50 50" fill="none" xmlns="http://www.w3.org/2000/svg">
<g opacity="0.7">
<path d="M0 25C0 11.1929 11.1929 0 25 0C38.8071 0 50 11.1929 50 25C50 38.8071 38.8071 50 25 50C11.1929 50 0 38.8071 0 25Z" fill="white"/>
<path fill-rule="evenodd" clip-rule="evenodd" d="M25 1C11.7452 1 1 11.7452 1 25C1 38.2548 11.7452 49 25 49C38.2548 49 49 38.2548 49 25C49 11.7452 38.2548 1 25 1ZM25 0C11.1929 0 0 11.1929 0 25C0 38.8071 11.1929 50 25 50C38.8071 50 50 38.8071 50 25C50 11.1929 38.8071 0 25 0Z" fill="#3F97FB"/>
<path d="M19.4861 25.6182L27.3394 33.3988C27.684 33.7395 28.2423 33.7395 28.5877 33.3988C28.9323 33.0581 28.9323 32.5048 28.5877 32.1642L21.3574 25.0009L28.5869 17.8376C28.9315 17.4969 28.9315 16.9436 28.5869 16.6021C28.2423 16.2614 27.6831 16.2614 27.3385 16.6021L19.4852 24.3827C19.1459 24.7199 19.1459 25.2819 19.4861 25.6182Z" fill="#3F97FB"/>
</g>
</svg>
