<svg width="50" height="50" fill="none" xmlns="http://www.w3.org/2000/svg"><g opacity=".7"><path d="M0 25C0 11.193 11.193 0 25 0s25 11.193 25 25-11.193 25-25 25S0 38.807 0 25z" fill="#fff"/><path fill-rule="evenodd" clip-rule="evenodd" d="M25 1C11.745 1 1 11.745 1 25s10.745 24 24 24 24-10.745 24-24S38.255 1 25 1zm0-1C11.193 0 0 11.193 0 25s11.193 25 25 25 25-11.193 25-25S38.807 0 25 0z" fill="#3F97FB"/><path d="M19.486 25.618l7.853 7.78a.89.89 0 001.249 0 .866.866 0 000-1.234l-7.23-7.163 7.229-7.163a.868.868 0 000-1.236.89.89 0 00-1.248 0l-7.854 7.78c-.34.338-.34.9.001 1.236z" fill="#3F97FB"/></g></svg>